<svg xmlns="http://www.w3.org/2000/svg" width="192" height="192" viewBox="0 0 192 192" role="img" aria-label="ConvertaJá icon">
  <defs>
    <linearGradient id="g" x1="0" y1="0" x2="1" y2="1">
      <stop offset="0%" stop-color="#6366F1"/>
      <stop offset="100%" stop-color="#8B5CF6"/>
    </linearGradient>
    <filter id="s" x="-20%" y="-20%" width="140%" height="140%">
      <feDropShadow dx="0" dy="6" stdDeviation="8" flood-color="rgba(2,6,23,0.25)"/>
    </filter>
  </defs>
  <rect x="12" y="12" width="168" height="168" rx="36" fill="url(#g)" filter="url(#s)"/>
  <g fill="#fff">
    <path d="M70 74c-8 0-14 6-14 14v16c0 8 6 14 14 14h18v12H70c-14 0-26-12-26-26V88c0-14 12-26 26-26h18v12H70z"/>
    <path d="M122 62h-18v12h18c8 0 14 6 14 14v28c0 8-6 14-14 14h-18v12h18c14 0 26-12 26-26V88c0-14-12-26-26-26z"/>
  </g>
</svg>

